<?xml version="1.0" encoding="UTF-8"?>
<svg version="1.1" xmlns="http://www.w3.org/2000/svg" width="1200" height="1200">
<path d="M0 0 C3.60601949 2.66887059 6.04153611 5.16755387 8.4453125 8.9453125 C9.47640137 10.53907715 9.47640137 10.53907715 10.52832031 12.16503906 C10.91507935 12.76755493 11.30183838 13.3700708 11.70031738 13.99084473 C14.27826962 17.97605331 16.92309792 21.91728902 19.5546875 25.8671875 C20.75925666 27.67829093 21.96368122 29.48949054 23.16796875 31.30078125 C23.77817871 32.21811035 24.38838867 33.13543945 25.01708984 34.08056641 C26.25294819 35.93938831 27.48797819 37.79876122 28.72216797 39.65869141 C37.50973528 52.90459753 37.50973528 52.90459753 46.5078125 66.0078125 C47.23887207 67.05855957 47.96993164 68.10930664 48.72314453 69.19189453 C52.783351 74.19945349 57.34990988 77.42157728 63.1875 80.1875 C64.42940096 80.78696314 65.67022962 81.38865124 66.91015625 81.9921875 C67.57031738 82.3128418 68.23047852 82.63349609 68.91064453 82.96386719 C73.49850214 85.23903284 78.00299176 87.67835303 82.51904297 90.09204102 C86.7860322 92.35799775 91.07429778 94.53116543 95.44921875 96.58203125 C96.34560059 97.00830811 97.24198242 97.43458496 98.16552734 97.8737793 C99.87772946 98.68313512 101.59778812 99.47616059 103.32666016 100.24926758 C111.64064503 104.20842981 115.47145291 110.32113943 119.375 118.5 C119.87773438 119.5415625 120.38046875 120.583125 120.8984375 121.65625 C121.26195312 122.4296875 121.62546875 123.203125 122 124 C122.00495483 123.1325415 122.00495483 123.1325415 122.01000977 122.24755859 C122.38884231 114.36441893 125.27231513 108.51265287 128.9375 101.625 C129.48857422 100.55894531 130.03964844 99.49289062 130.60742188 98.39453125 C131.62667733 96.42537429 132.6525089 94.45959597 133.68725586 92.49853516 C134.81813589 90.34614047 135.9126461 88.17470781 137 86 C133.7 83.69 130.4 81.38 127 79 C127.33 77.68 127.66 76.36 128 75 C130.31 75 132.62 75 135 75 C134.319375 74.2575 133.63875 73.515 132.9375 72.75 C132.298125 71.8425 131.65875 70.935 131 70 C131.33 68.68 131.66 67.36 132 66 C137.94 65.505 137.94 65.505 144 65 C143.01 62.6178125 143.01 62.6178125 142 60.1875 C140.74333269 57.16364428 140 55.29657856 140 52 C142.96809094 52.41415222 145.59191057 52.82141844 148.34765625 54.02734375 C154.3046034 56.21185014 161.34829055 55.27257739 167.5625 54.5 C168.28050781 54.42265625 168.99851562 54.3453125 169.73828125 54.265625 C171.34661075 54.07673656 172.94869723 53.8309541 174.54296875 53.546875 C180.34626286 52.91043871 183.63350946 54.01530504 188.1015625 57.58227539 C190.84107481 59.95237572 193.44498635 62.43322043 196 65 C196.69996094 65.68578125 197.39992188 66.3715625 198.12109375 67.078125 C201.35018638 70.51629557 202.76938336 73.27235882 203 78 C201 79 201 79 197.4375 78.0625 C189.98020341 76.1106805 183.8964317 76.30437109 176.94140625 79.82421875 C172.0108864 82.81030824 170.73442483 86.38428088 169.25 91.75 C166.42844654 104.73860366 169.78362145 113.91856927 175.26953125 125.734375 C177.61576459 128.80619292 180.48810253 130.30505623 183.875 132 C184.53250244 132.3403125 185.19000488 132.680625 185.86743164 133.03125 C192.06594785 136.17252564 198.44247255 138.69988919 205 141 C205.27021973 140.13576416 205.54043945 139.27152832 205.81884766 138.38110352 C207.81799158 132.65846105 210.66167397 127.34921083 213.375 121.9375 C213.9525 120.76638672 214.53 119.59527344 215.125 118.38867188 C215.68960937 117.25880859 216.25421875 116.12894531 216.8359375 114.96484375 C217.34688965 113.9399585 217.8578418 112.91507324 218.38427734 111.85913086 C220.86285363 107.47312195 223.18221357 103.9568184 227.87890625 101.89453125 C228.99869873 101.38696289 228.99869873 101.38696289 230.14111328 100.86914062 C230.9401709 100.52044922 231.73922852 100.17175781 232.5625 99.8125 C234.28154452 99.03084559 235.99895047 98.24557925 237.71484375 97.45703125 C238.59253418 97.05436035 239.47022461 96.65168945 240.37451172 96.23681641 C246.9298919 93.14870445 253.28106697 89.65229614 259.66699219 86.23193359 C262.00643536 84.99660184 264.3622939 83.80031864 266.7265625 82.61328125 C267.48759277 82.22591797 268.24862305 81.83855469 269.03271484 81.43945312 C270.45221426 80.71798106 271.87665026 80.00609138 273.30712891 79.30664062 C283.32822703 74.15992855 288.76245095 65.32644942 294.75 56.125 C295.55303462 54.90433996 296.35675217 53.68412894 297.16113281 52.46435547 C301.8143334 45.39625186 306.42060224 38.29713235 311.00097656 31.18164062 C314.79015251 25.3003714 318.63476469 19.45653262 322.5 13.625 C323.10038086 12.71379395 323.70076172 11.80258789 324.31933594 10.86376953 C324.88426758 10.01411621 325.44919922 9.16446289 326.03125 8.2890625 C326.78245117 7.15525146 326.78245117 7.15525146 327.54882812 5.99853516 C328.92837692 4.09863838 330.18392728 2.4895811 332 1 C332.99 1 333.98 1 335 1 C335.31893569 14.5902043 334.61177034 28.05789466 333.71142578 41.61108398 C333.665513 42.30997238 333.61960022 43.00886078 333.57229614 43.72892761 C333.4454626 45.64531433 333.31466096 47.56143724 333.18359375 49.47753906 C333.00041184 52.99209835 332.9684327 56.48137391 333 60 C333.66644531 59.50371094 334.33289063 59.00742187 335.01953125 58.49609375 C340.69354835 54.31398604 346.43308337 50.33778074 352.41796875 46.61328125 C354.08239044 45.57333245 355.73237713 44.50973101 357.36328125 43.41796875 C358.06839844 42.95003906 358.77351563 42.48210937 359.5 42 C360.1084375 41.5875 360.716875 41.175 361.34375 40.75 C363 40 363 40 366 41 C362.40689633 52.83610621 356.97507125 64.01173905 351.71166992 75.18041992 C348.00861776 83.06047325 344.5130944 91.03394438 341 99 C350.45921373 96.35422982 359.73714244 93.55872681 368.8203125 89.79248047 C374.52799598 87.51324765 374.52799598 87.51324765 378 89 C377.62644063 94.06172952 374.90239032 96.68114871 371.5 100.125 C370.39723447 101.27755622 369.29700012 102.43253924 368.19921875 103.58984375 C367.65442871 104.16331543 367.10963867 104.73678711 366.54833984 105.32763672 C363.57882619 108.53501113 360.89000079 111.9677164 358.15625 115.375 C355.95213431 118.05827127 353.65589108 120.62539242 351.3125 123.1875 C347.58875082 127.27055831 344.20497604 131.50046501 341 136 C342.19496094 135.7834375 342.19496094 135.7834375 343.4140625 135.5625 C344.47367188 135.376875 345.53328125 135.19125 346.625 135 C347.66914062 134.814375 348.71328125 134.62875 349.7890625 134.4375 C352.90574865 134.01284203 355.85930812 133.92454794 359 134 C359 138 359 138 356.54296875 140.69921875 C355.43532615 141.7073604 354.31601851 142.70278294 353.1875 143.6875 C352.59799561 144.21569336 352.00849121 144.74388672 351.40112305 145.28808594 C346.07186005 150.02743859 340.58051535 154.56020764 335 159 C334.0409375 159.76957031 333.081875 160.53914062 332.09375 161.33203125 C329.73254157 163.22564082 327.3679757 165.11486533 325 167 C329.455 168.485 329.455 168.485 334 170 C332.6878516 173.9364452 330.31391469 174.99911015 326.9375 177.0625 C325.66143626 177.85673537 324.3853955 178.65100767 323.109375 179.4453125 C322.43841797 179.85942383 321.76746094 180.27353516 321.07617188 180.70019531 C318.97229266 182.01734641 316.89887403 183.37363354 314.828125 184.7421875 C313.44800206 185.64075617 312.06779566 186.53919667 310.6875 187.4375 C310.05513428 187.86232666 309.42276855 188.28715332 308.77124023 188.72485352 C304.02988631 191.76597844 299.54493661 193.09537113 294 194 C294.66 194.33 295.32 194.66 296 195 C296 196.32 296 197.64 296 199 C295.09378906 199.25394531 294.18757813 199.50789062 293.25390625 199.76953125 C286.44498124 201.69332276 279.69089282 203.69279558 273 206 C273.99 206.66 274.98 207.32 276 208 C276 209.32 276 210.64 276 212 C269.46313616 212.98831156 263.10422885 213.11883529 256.5 213.0625 C255.48679687 213.05798828 254.47359375 213.05347656 253.4296875 213.04882812 C250.95306173 213.03714593 248.47656343 213.02076582 246 213 C246.66 213.99 247.32 214.98 248 216 C248.125 218.6875 248.125 218.6875 248 221 C241.12712433 220.56362694 236.14956537 219.00936178 230 216 C228.33805262 215.32165413 226.67401097 214.64800425 225 214 C224.67 215.32 224.34 216.64 224 218 C219.16206217 216.5840182 215.31803578 214.52612794 211 212 C213.77470307 233.29914926 226.78371315 244.98609433 241.625 259.625 C247.46664829 265.38755441 253.25621729 271.13566698 258.58740234 277.38232422 C260.80418279 279.92093245 263.29646847 282.12531252 265.8125 284.359375 C267 286 267 286 266.6875 288.203125 C266.3471875 289.09257813 266.3471875 289.09257813 266 290 C260 288.66666667 254 287.33333333 248 286 C248.7321875 286.76957031 249.464375 287.53914063 250.21875 288.33203125 C253.77868376 292.61021925 255.52057238 297.54072767 257.5 302.6875 C258.27816843 304.65825566 259.05809758 306.62831705 259.83984375 308.59765625 C260.39454346 310.00168701 260.39454346 310.00168701 260.96044922 311.43408203 C262.55239981 315.36348568 264.3468827 319.17448951 266.22265625 322.9765625 C267 325 267 325 267 329 C263.62137883 328.38952527 261.62567433 327.17827948 258.953125 325.05078125 C258.19 324.44943359 257.426875 323.84808594 256.640625 323.22851562 C255.45726562 322.28008789 255.45726562 322.28008789 254.25 321.3125 C252.69323427 320.07876316 251.1359462 318.8456851 249.578125 317.61328125 C248.82080078 317.01209473 248.06347656 316.4109082 247.28320312 315.79150391 C243.89885902 313.13599524 240.45657794 310.56045004 237 308 C238.03784394 309.81469162 239.0805217 311.62661879 240.125 313.4375 C240.76179688 314.54351563 241.39859375 315.64953125 242.0546875 316.7890625 C243.66688885 319.45016594 245.36869011 321.84505336 247.25 324.3125 C249.71284224 327.9878385 250.64145874 331.19994412 251.44140625 335.5390625 C251.56280472 336.18447495 251.68420319 336.82988739 251.8092804 337.49485779 C252.07357309 338.90792607 252.33356058 340.32180472 252.58978271 341.73635864 C253.01551441 344.0856109 253.45327999 346.43239326 253.89306641 348.77905273 C254.6818504 353.00505974 255.45320271 357.23401798 256.21704102 361.46459961 C256.53367651 363.21307823 256.85273203 364.96112015 257.17407227 366.70874023 C257.64591697 369.27497578 258.11085371 371.84237774 258.57421875 374.41015625 C258.71792404 375.18521011 258.86162933 375.96026398 259.00968933 376.75880432 C259.74732152 380.89719167 260.15283488 384.77547646 260 389 C256 389 256 389 254.359375 387.63671875 C253.82828125 386.99347656 253.2971875 386.35023438 252.75 385.6875 C252.14800781 384.95917969 251.54601562 384.23085938 250.92578125 383.48046875 C247.50121427 379.06951533 244.24723312 374.54218236 241 370 C239.86005806 368.43319668 238.7148968 366.87016553 237.5625 365.3125 C237.08941406 364.66925781 236.61632812 364.02601563 236.12890625 363.36328125 C235.75636719 362.91339844 235.38382813 362.46351563 235 362 C234.67 362 234.34 362 234 362 C233.92595947 362.62229492 233.85191895 363.24458984 233.77563477 363.88574219 C231.61292186 381.10529709 227.71368654 397.90535501 217 412 C216.01 412.33 215.02 412.66 214 413 C212.65779044 410.31558089 212.56712008 407.88537817 212.24609375 404.8984375 C212.11396484 403.68671875 211.98183594 402.475 211.84570312 401.2265625 C211.64364258 399.32003906 211.64364258 399.32003906 211.4375 397.375 C211.22963867 395.456875 211.22963867 395.456875 211.01757812 393.5 C210.67495469 390.33368685 210.33591633 387.16703058 210 384 C209.764021 384.52730713 209.52804199 385.05461426 209.28491211 385.59790039 C199.40864701 407.65018604 199.40864701 407.65018604 194.90332031 417.10107422 C194.26053421 418.45231485 193.622346 419.80574684 192.98730469 421.16064453 C191.94184782 423.3842917 190.87927368 425.59901288 189.8125 427.8125 C189.49144287 428.50118164 189.17038574 429.18986328 188.83959961 429.89941406 C187.45003003 432.74101386 186.45387808 434.70612781 183.76171875 436.44921875 C182.88966797 436.72185547 182.88966797 436.72185547 182 437 C179.99349636 432.71872393 179.41484838 428.50621981 178.9296875 423.85546875 C178.80075607 422.7007885 178.80075607 422.7007885 178.66921997 421.52278137 C178.3978167 419.07836744 178.13627199 416.63301545 177.875 414.1875 C177.69205732 412.52401681 177.50847053 410.86060432 177.32421875 409.19726562 C176.87535062 405.13229118 176.43531735 401.06644699 176 397 C173.63803053 399.94911597 171.97158492 402.89802909 170.37109375 406.31640625 C169.89349609 407.32767578 169.41589844 408.33894531 168.92382812 409.38085938 C168.43333984 410.43080078 167.94285156 411.48074219 167.4375 412.5625 C166.45911168 414.64811264 165.4787301 416.7327917 164.49609375 418.81640625 C164.06482178 419.73881104 163.6335498 420.66121582 163.18920898 421.61157227 C162 424 162 424 160 427 C158.68 427 157.36 427 156 427 C155.41239011 422.9268798 154.93689282 419.01202426 155.00219727 414.89526367 C155.11194032 400.67743025 150.47019307 389.23322909 144.9375 376.3125 C144.07219483 374.23223045 143.20954647 372.15085371 142.34960938 370.06835938 C140.26344816 365.03243157 138.14522202 360.01103314 136 355 C135.18329079 355.51581635 135.18329079 355.51581635 134.3500824 356.04205322 C107.5 373 107.5 373 103 373 C103.38751963 371.4562226 103.78581745 369.915153 104.1875 368.375 C104.45046875 367.364375 104.7134375 366.35375 104.984375 365.3125 C106 362 106 362 107.453125 358.75 C111.59786845 349.32616226 110.66963062 342.92129887 107.76171875 333.49267578 C106.60232228 329.69862516 105.5484484 325.8781109 104.51293945 322.04858398 C103.97519779 320.06255022 103.41987225 318.08116796 102.84448242 316.10571289 C101.16025422 309.99818362 100.86820765 305.21741707 102 299 C102.10441406 298.06027344 102.20882812 297.12054687 102.31640625 296.15234375 C102.54427083 294.1015625 102.77213542 292.05078125 103 290 C102.22914063 290.5053125 101.45828125 291.010625 100.6640625 291.53125 C99.66117188 292.1809375 98.65828125 292.830625 97.625 293.5 C96.62726563 294.1496875 95.62953125 294.799375 94.6015625 295.46875 C92 297 92 297 90 297 C89.74694092 297.95507446 89.74694092 297.95507446 89.48876953 298.92944336 C87.44930099 306.52670208 85.19716308 314.04736785 82.875 321.5625 C82.33552734 323.32303711 82.33552734 323.32303711 81.78515625 325.11914062 C81.44097656 326.23611328 81.09679687 327.35308594 80.7421875 328.50390625 C80.4313623 329.51267822 80.12053711 330.5214502 79.80029297 331.56079102 C79 334 79 334 78 336 C77.01 336 76.02 336 75 336 C73.46082876 332.49022918 72.619856 329.34167884 72.1484375 325.54296875 C72.01953125 324.51236328 71.890625 323.48175781 71.7578125 322.41992188 C71.63148438 321.35322266 71.50515625 320.28652344 71.375 319.1875 C71.2409375 318.13240234 71.106875 317.07730469 70.96875 315.99023438 C70.7162344 313.92244078 70.48621956 311.85175834 70.28027344 309.77880859 C70.05335917 307.52903669 69.7459174 305.28748329 69.4140625 303.05078125 C69.52371703 297.2216978 73.76454676 292.33296411 76.90020752 287.65704346 C78.56124383 285.154381 80.11887103 282.59100654 81.68359375 280.02734375 C82.29251465 279.03984131 82.90143555 278.05233887 83.52880859 277.03491211 C103.7213772 245.54833765 103.7213772 245.54833765 122 213 C121.20335937 213.433125 121.20335937 213.433125 120.390625 213.875 C119.68421875 214.24625 118.9778125 214.6175 118.25 215 C117.55390625 215.37125 116.8578125 215.7425 116.140625 216.125 C114 217 114 217 110 217 C109.67 215.68 109.34 214.36 109 213 C107.989375 213.598125 106.97875 214.19625 105.9375 214.8125 C99.31742207 218.55370636 93.56441546 220.50256678 86 221 C85 218 85 218 86.4375 214.8125 C87.2109375 213.4203125 87.2109375 213.4203125 88 212 C87.06317383 212.05329468 87.06317383 212.05329468 86.10742188 212.10766602 C83.23863629 212.26665959 80.36938064 212.41465023 77.5 212.5625 C76.51773438 212.61857422 75.53546875 212.67464844 74.5234375 212.73242188 C68.85313239 213.01593713 63.60805516 212.90129458 58 212 C58.57194165 208.68273845 59.57000464 207.27364177 62 205 C61.37955811 204.85900879 60.75911621 204.71801758 60.11987305 204.57275391 C57.30757551 203.92989791 54.49755991 203.27756447 51.6875 202.625 C50.71103516 202.40328125 49.73457031 202.1815625 48.72851562 201.953125 C47.79072266 201.73398437 46.85292969 201.51484375 45.88671875 201.2890625 C45.02264404 201.09006348 44.15856934 200.89106445 43.26831055 200.68603516 C41 200 41 200 38 198 C38.33 196.68 38.66 195.36 39 194 C38.40864258 193.86319824 37.81728516 193.72639648 37.20800781 193.58544922 C29.83660702 191.65566535 24.07329829 188.30289351 17.75 184.125 C16.79609375 183.51269531 15.8421875 182.90039062 14.859375 182.26953125 C9.97545633 179.10176733 5.3653949 175.85268074 1 172 C1.33 170.68 1.66 169.36 2 168 C4.64 168 7.28 168 10 168 C5.02753937 163.43741682 0.01850623 158.96950202 -5.25 154.75 C-12.14897512 149.17737017 -18.55659556 143.08596011 -25 137 C-24.67 136.01 -24.34 135.02 -24 134 C-15.585 134.495 -15.585 134.495 -7 135 C-14.60440746 125.93171284 -14.60440746 125.93171284 -22.4375 117.0625 C-26.09779447 113.02628339 -29.69131558 108.93821855 -33.25 104.8125 C-33.99334595 103.95700562 -33.99334595 103.95700562 -34.75170898 103.08422852 C-44 92.31763102 -44 92.31763102 -44 88 C-37.62486456 88.58276861 -32.08853269 90.61743471 -26.125 92.875 C-24.23220249 93.58188607 -22.33897758 94.28762885 -20.4453125 94.9921875 C-19.0826123 95.50023926 -19.0826123 95.50023926 -17.69238281 96.01855469 C-13.82211598 97.42937013 -9.91850066 98.73021659 -6 100 C-11.74529624 85.79430693 -17.83431088 71.83873644 -24.5546875 58.06640625 C-25.37026031 56.37783044 -26.18537842 54.68903492 -27 53 C-27.41024414 52.16968262 -27.82048828 51.33936523 -28.24316406 50.48388672 C-28.80729004 49.29883545 -28.80729004 49.29883545 -29.3828125 48.08984375 C-29.71941895 47.39624756 -30.05602539 46.70265137 -30.40283203 45.98803711 C-31.11509172 43.61684715 -30.79618286 42.3106119 -30 40 C-26.36787821 41.33200686 -23.33207007 42.95431609 -20.12890625 45.1171875 C-18.77249023 46.02791016 -18.77249023 46.02791016 -17.38867188 46.95703125 C-16.45603516 47.58996094 -15.52339844 48.22289062 -14.5625 48.875 C-13.63373047 49.50019531 -12.70496094 50.12539063 -11.74804688 50.76953125 C-10.00711068 51.94172032 -8.26745208 53.11581093 -6.52954102 54.29248047 C-3.69400759 56.20655447 -0.84795446 58.10446858 2 60 C1.92150063 59.00188042 1.92150063 59.00188042 1.84141541 57.9835968 C1.29805046 51.05747589 0.76428407 44.13066272 0.23608398 37.20336914 C0.03770036 34.61821803 -0.16312943 32.03325343 -0.36645508 29.44848633 C-0.6582957 25.73304836 -0.94133106 22.01702837 -1.22265625 18.30078125 C-1.31531265 17.14540359 -1.40796906 15.99002594 -1.50343323 14.79963684 C-1.58359177 13.71889389 -1.66375031 12.63815094 -1.74633789 11.5246582 C-1.81961807 10.57645706 -1.89289825 9.62825592 -1.96839905 8.65132141 C-2.00077441 5.93502683 -1.68466316 3.62476189 -1 1 C-0.67 0.67 -0.34 0.34 0 0 Z M330 10 C328.5419964 12.23062089 327.13756012 14.47583194 325.75 16.75 C317.21062409 30.56082516 308.32016822 44.13870754 299.23831177 57.59841919 C298.15557483 59.20464272 297.07759449 60.81406941 295.99975586 62.42358398 C285.01087027 78.62810939 285.01087027 78.62810939 275.75 83.375 C275.06671631 83.74165771 274.38343262 84.10831543 273.67944336 84.48608398 C272.21781097 85.26719061 270.75211028 86.04072572 269.28271484 86.80712891 C266.9553785 88.02331772 264.64300989 89.26476019 262.33203125 90.51171875 C253.87676597 95.04805497 245.35603538 99.37114819 236.60571289 103.31274414 C229.32206678 106.63531501 224.5608384 109.58891612 221.1875 117.125 C220.51313633 118.58979681 219.83595244 120.05329787 219.15625 121.515625 C218.80820312 122.26650391 218.46015625 123.01738281 218.1015625 123.79101562 C217.04405465 125.91165638 215.87216778 127.86594472 214.59375 129.859375 C204.73251465 145.89083536 201.98793049 173.1959988 205.734375 191.609375 C209.0627567 202.38199318 209.0627567 202.38199318 217 210 C217.66 210 218.32 210 219 210 C218.67 206.37 218.34 202.74 218 199 C221.26333656 201.37333568 223.78297646 203.89031051 226.3125 207 C229.64936798 210.91370073 233.09852505 213.38038219 238 215 C238.99 215 239.98 215 241 215 C239.3718356 211.24269753 236.98598083 208.383177 234.375 205.25 C233.55773437 204.26515625 232.74046875 203.2803125 231.8984375 202.265625 C230.95871094 201.14414062 230.95871094 201.14414062 230 200 C230.33 199.34 230.66 198.68 231 198 C231.70125 198.63808594 232.4025 199.27617188 233.125 199.93359375 C234.07375 200.75988281 235.0225 201.58617187 236 202.4375 C236.928125 203.26121094 237.85625 204.08492187 238.8125 204.93359375 C244.84757524 208.84603836 252.02422736 208.14108323 259 208.0625 C259.77472656 208.05798828 260.54945313 208.05347656 261.34765625 208.04882812 C263.23180524 208.03719758 265.11591365 208.01926906 267 208 C263.32306791 204.21997635 259.47845577 200.7602886 255.4375 197.375 C254.87353516 196.89804687 254.30957031 196.42109375 253.72851562 195.9296875 C251.42153994 193.98697113 249.12678718 192.08932252 246.66015625 190.3515625 C245 189 245 189 244 186 C244.59949463 186.28721924 245.19898926 186.57443848 245.81665039 186.87036133 C248.56456788 188.18587348 251.3135238 189.49920173 254.0625 190.8125 C255.47692383 191.49022461 255.47692383 191.49022461 256.91992188 192.18164062 C268.30364272 197.61568159 275.40671243 200.19829526 288 197 C284.22852733 193.76298736 279.88803131 192.01888796 275.375 190.0625 C274.57191406 189.71058594 273.76882813 189.35867188 272.94140625 188.99609375 C263.76199782 184.25290762 263.76199782 184.25290762 254 182 C254 181.01 254 180.02 254 179 C255.10472656 179.31453125 256.20945312 179.6290625 257.34765625 179.953125 C266.60106288 182.52222788 275.84903281 184.66351077 285.3125 186.3125 C286.28388916 186.48362305 287.25527832 186.65474609 288.25610352 186.83105469 C297.40673293 188.36908308 302.20213281 188.46812165 310 183.25 C310.68578125 182.8065625 311.3715625 182.363125 312.078125 181.90625 C314.062208 180.6188679 316.03116342 179.31053217 318 178 C318.90878906 177.4131543 318.90878906 177.4131543 319.8359375 176.81445312 C321.24120952 175.90234581 322.6234869 174.95495596 324 174 C324 173.67 324 173.34 324 173 C323.37955811 172.91959473 322.75911621 172.83918945 322.11987305 172.75634766 C319.30795146 172.38732078 316.49778199 172.00630375 313.6875 171.625 C312.71103516 171.49867188 311.73457031 171.37234375 310.72851562 171.2421875 C309.79072266 171.11328125 308.85292969 170.984375 307.88671875 170.8515625 C306.59060669 170.67874756 306.59060669 170.67874756 305.26831055 170.50244141 C303 170 303 170 300 168 C301.48886719 168.19142578 301.48886719 168.19142578 303.0078125 168.38671875 C311.12627555 169.10737577 316.74232375 168.59041975 323.125 163.25 C324.86298646 161.73969301 326.56278492 160.20066408 328.24267578 158.62597656 C330.0541335 156.9499126 331.91592631 155.35699009 333.80859375 153.7734375 C339.07511479 149.36193257 344.19812235 144.91812422 349 140 C347.40493333 140.14437015 345.80988531 140.2889464 344.21484375 140.43359375 C342.70253174 140.57063721 342.70253174 140.57063721 341.15966797 140.71044922 C339.16098436 140.89360783 337.16256983 141.07974839 335.16455078 141.27001953 C321.39916503 142.58020436 307.82731072 143.27532256 294 143 C295.8566359 141.1433641 298.91372088 141.51756583 301.4140625 141.28125 C302.38585953 141.18704773 302.38585953 141.18704773 303.37728882 141.09094238 C305.45948187 140.88976552 307.54218178 140.69458855 309.625 140.5 C311.68628751 140.30444567 313.747439 140.10759693 315.80844116 139.90905762 C317.69447928 139.72783801 319.58087426 139.55034396 321.46728516 139.37304688 C323.215979 139.18838867 323.215979 139.18838867 325 139 C326.23153809 138.88406494 327.46307617 138.76812988 328.73193359 138.64868164 C332.16397927 137.9674516 333.23813521 137.4638912 335.5 134.90234375 C336.36105347 133.95246582 336.36105347 133.95246582 337.23950195 132.98339844 C337.82046631 132.30825195 338.40143066 131.63310547 339 130.9375 C339.9130188 129.9151123 339.9130188 129.9151123 340.84448242 128.87207031 C342.04087151 127.52847523 343.23019499 126.17854813 344.41162109 124.82177734 C345.73091128 123.30862896 347.07526757 121.81737883 348.42578125 120.33203125 C351.88541636 116.57955258 351.88541636 116.57955258 354 112 C354.99 111.67 355.98 111.34 357 111 C358.54318872 109.30618696 360.01400272 107.54557498 361.4375 105.75 C362.19933594 104.79609375 362.96117187 103.8421875 363.74609375 102.859375 C364.48988281 101.91578125 365.23367188 100.9721875 366 100 C367.33249983 98.33266688 368.66555486 96.66577662 370 95 C364.55632196 96.51145011 359.28818995 98.24575231 354.046875 100.359375 C346.96197733 103.10439055 339.78474729 105.14872745 332.4375 107.0625 C331.79190125 107.23297852 331.14630249 107.40345703 330.48114014 107.57910156 C319.4030289 110.50275293 308.27788933 112.98324803 297 115 C299.64511809 112.35488191 302.55431954 111.7703905 306.0546875 110.7578125 C307.48838708 110.32717511 308.92197748 109.89617405 310.35546875 109.46484375 C312.61430715 108.79303194 314.87417048 108.12524235 317.13623047 107.46435547 C319.32088252 106.82332691 321.50033256 106.16658952 323.6796875 105.5078125 C324.35272919 105.31599396 325.02577087 105.12417542 325.71920776 104.92654419 C330.90442935 103.34416399 333.58881998 101.32593999 336.38110352 96.72363281 C336.79287842 95.89186523 337.20465332 95.06009766 337.62890625 94.203125 C338.10166992 93.25526123 338.57443359 92.30739746 339.06152344 91.33081055 C339.5568457 90.31414307 340.05216797 89.29747559 340.5625 88.25 C341.33835449 86.67569214 341.33835449 86.67569214 342.12988281 85.06958008 C345.92598079 77.31777285 349.62187448 69.51922619 353.25 61.6875 C353.72767822 60.66237305 354.20535645 59.63724609 354.69750977 58.58105469 C355.13248779 57.63004883 355.56746582 56.67904297 356.015625 55.69921875 C356.59231934 54.44371216 356.59231934 54.44371216 357.18066406 53.1628418 C358.17712822 50.91789799 358.17712822 50.91789799 358 48 C356.94683594 48.75023437 355.89367187 49.50046875 354.80859375 50.2734375 C339.86179737 60.89233467 324.6324883 70.93108333 309.10449219 80.67822266 C302.28738148 84.95987432 295.50925674 89.27488599 288.875 93.8359375 C287 95 287 95 284 96 C287.46621774 92.3611109 290.97894265 89.44475915 295.125 86.5625 C296.35645047 85.69801134 297.58685857 84.83203659 298.81640625 83.96484375 C299.81244873 83.26270752 299.81244873 83.26270752 300.82861328 82.54638672 C304.94002818 79.61837885 308.99989131 76.62016744 313.0625 73.625 C313.87154785 73.03017822 314.6805957 72.43535645 315.51416016 71.82250977 C316.28421387 71.25459717 317.05426758 70.68668457 317.84765625 70.1015625 C318.52836182 69.59963379 319.20906738 69.09770508 319.91040039 68.58056641 C320.59996826 68.05897949 321.28953613 67.53739258 322 67 C322.88252441 66.49702393 323.76504883 65.99404785 324.67431641 65.47583008 C328.32057069 61.59417307 328.04912923 57.44700908 328.36328125 52.28515625 C328.48584541 50.71331825 328.48584541 50.71331825 328.61088562 49.10972595 C328.86653761 45.76185781 329.0896664 42.41269624 329.3125 39.0625 C329.48033598 36.81039045 329.65023434 34.55843359 329.82226562 32.30664062 C330.1313039 28.17535053 330.433263 24.04384304 330.7121582 19.91040039 C330.76813675 19.08085342 330.8241153 18.25130646 330.88179016 17.3966217 C331.00359638 14.92708587 331.02027895 12.47212313 331 10 C330.67 10 330.34 10 330 10 Z M3 11 C3.38534021 15.99513662 3.77624666 20.98979854 4.171875 25.98413086 C4.30516699 27.67607407 4.4370502 29.36812898 4.56738281 31.06030273 C5.22190327 39.54641224 5.91047558 48.03092923 6.91015625 56.484375 C7.04558838 57.65838867 7.18102051 58.83240234 7.32055664 60.04199219 C8.5304218 65.30923125 11.62785195 67.19371958 16 70 C17.26467864 70.89111731 18.52469229 71.78887378 19.78125 72.69140625 C22.67552846 74.76442184 25.58276998 76.81656701 28.50390625 78.8515625 C32.8683048 81.89878197 37.196189 84.99286056 41.5 88.125 C42.14074463 88.58616211 42.78148926 89.04732422 43.44165039 89.52246094 C47.88305342 92.76610684 47.88305342 92.76610684 49 95 C38.4515331 89.14930058 28.25170304 82.82671029 18.08984375 76.33203125 C16.36715774 75.23402017 14.63760828 74.14678498 12.90625 73.0625 C0.52368018 65.30474541 -11.40855257 56.89116706 -23 48 C-23.33 48.66 -23.66 49.32 -24 50 C-22.94958458 52.38032733 -21.8373312 54.64050933 -20.625 56.9375 C-19.87827809 58.38833107 -19.13356904 59.84019948 -18.390625 61.29296875 C-17.99810547 62.05915527 -17.60558594 62.8253418 -17.20117188 63.61474609 C-15.18240634 67.62355488 -13.28117843 71.68676599 -11.375 75.75 C-6.34639543 86.45330366 -6.34639543 86.45330366 -1 97 C-0.45472656 98.30324219 -0.45472656 98.30324219 0.1015625 99.6328125 C3.02255377 103.27503618 6.61323786 103.77240899 11 105 C13.03428053 105.66000208 15.06540205 106.32979731 17.09375 107.0078125 C18.66769531 107.52794922 18.66769531 107.52794922 20.2734375 108.05859375 C21.87058594 108.58646484 21.87058594 108.58646484 23.5 109.125 C24.59570312 109.48464844 25.69140625 109.84429688 26.8203125 110.21484375 C28.37878906 110.73111328 28.37878906 110.73111328 29.96875 111.2578125 C31.38317383 111.72405029 31.38317383 111.72405029 32.82617188 112.19970703 C35 113 35 113 36 114 C28.00552872 113.33162401 20.36401766 111.64763306 12.5625 109.8125 C11.56830048 109.57965302 11.56830048 109.57965302 10.55401611 109.34210205 C-3.71913974 105.98307955 -17.43871861 101.85908196 -30.8125 95.78515625 C-31.534375 95.52605469 -32.25625 95.26695312 -33 95 C-33.99 95.495 -33.99 95.495 -35 96 C-27.42748995 104.90807261 -19.70648498 113.6325968 -11.58935547 122.05102539 C-8.10856326 125.67338494 -5.04522147 129.27737716 -2.125 133.375 C4.291389 140.6161536 16.85954127 139.82258103 25.83984375 140.38671875 C30.89188615 140.66727041 35.94234941 140.85535319 41 141 C40.67 141.66 40.34 142.32 40 143 C26.93419916 143.32349988 14.07128949 142.42652606 1.06005859 141.27001953 C-3.95832377 140.82719754 -8.97922213 140.41463132 -14 140 C-14 140.66 -14 141.32 -14 142 C-11.99332902 143.70170578 -9.97514779 145.29560934 -7.875 146.875 C-1.9578022 151.41329983 3.75464673 156.13161852 9.37939453 161.02685547 C10.9128223 162.35907442 12.45599266 163.68005705 14 165 C14.61101562 165.60457031 15.22203125 166.20914063 15.8515625 166.83203125 C19.33405632 168.72524152 22.86215173 168.31322644 26.75 168.1875 C27.54277344 168.17396484 28.33554687 168.16042969 29.15234375 168.14648438 C31.10185564 168.11125223 33.05101626 168.05744821 35 168 C31.9939911 169.6855556 29.42308873 170.39446371 26.015625 170.8515625 C25.08105469 170.98046875 24.14648438 171.109375 23.18359375 171.2421875 C22.21550781 171.36851562 21.24742187 171.49484375 20.25 171.625 C18.77466797 171.82609375 18.77466797 171.82609375 17.26953125 172.03125 C14.84713544 172.36050768 12.42404916 172.68318477 10 173 C13.86132738 176.21532584 17.88685717 178.94827821 22.125 181.625 C23.35687628 182.40868844 24.58865074 183.19253695 25.8203125 183.9765625 C26.86960937 184.64429688 27.91890625 185.31203125 29 186 C30.485 186.99 30.485 186.99 32 188 C47.60020051 187.83896567 65.27762541 183.9074582 80 179 C80 179.99 80 180.98 80 182 C79.40646729 182.16435547 78.81293457 182.32871094 78.20141602 182.49804688 C71.57427855 184.40090747 65.27354739 186.79030013 58.9375 189.5 C57.98939453 189.89058594 57.04128906 190.28117188 56.06445312 190.68359375 C55.16533203 191.06644531 54.26621094 191.44929687 53.33984375 191.84375 C52.52894287 192.18599609 51.71804199 192.52824219 50.88256836 192.88085938 C48.66238952 193.92303523 48.66238952 193.92303523 48 197 C49.37117605 197.368694 50.74724707 197.71919853 52.125 198.0625 C52.89070313 198.25972656 53.65640625 198.45695313 54.4453125 198.66015625 C59.44286886 199.32496879 63.82445879 197.84390251 68.3984375 195.93359375 C69.37167969 195.53076172 70.34492188 195.12792969 71.34765625 194.71289062 C72.34667969 194.29201172 73.34570312 193.87113281 74.375 193.4375 C75.39722656 193.01275391 76.41945313 192.58800781 77.47265625 192.15039062 C79.98417905 191.10587881 82.49312619 190.05560951 85 189 C85 188.34 85 187.68 85 187 C86.65 186.67 88.3 186.34 90 186 C88.47854238 189.83822262 86.20763464 191.71669764 83 194.25 C82.02417969 195.02859375 81.04835938 195.8071875 80.04296875 196.609375 C78.53669922 197.79273438 78.53669922 197.79273438 77 199 C75.10250142 200.49789292 73.20654047 201.9977368 71.3125 203.5 C70.48363281 204.1496875 69.65476562 204.799375 68.80078125 205.46875 C68.20652344 205.9740625 67.61226563 206.479375 67 207 C67 207.33 67 207.66 67 208 C72.00202765 208.05931258 76.99815444 208.04510682 82 208 C82.87398437 208.01933594 83.74796875 208.03867187 84.6484375 208.05859375 C90.89016224 207.88959398 94.29737793 204.81395549 98.8359375 200.71484375 C101 199 101 199 104 199 C102.93458984 200.35544922 102.93458984 200.35544922 101.84765625 201.73828125 C100.91905399 202.92951849 99.99068047 204.12093408 99.0625 205.3125 C98.35963867 206.20485352 98.35963867 206.20485352 97.64257812 207.11523438 C95.61444041 209.72700884 94.05369199 211.83892403 93 215 C101.51468319 213.70039046 107.35599263 208.08686576 112.78515625 201.734375 C114.19123664 200.07990092 114.19123664 200.07990092 114 198 C114.99 198 115.98 198 117 198 C116.34 201.96 115.68 205.92 115 210 C120.70709309 207.71716276 123.31004033 205.91208411 125.73828125 200.34765625 C126.27533994 198.92385693 126.79979434 197.49524891 127.3125 196.0625 C127.58900391 195.37865234 127.86550781 194.69480469 128.15039062 193.99023438 C130.6113756 187.18998117 129.83413841 181.07351254 129 174 C128.86376967 172.62615882 128.73033658 171.25203805 128.59936523 169.87768555 C126.24103273 144.3617696 126.24103273 144.3617696 115.11914062 121.67236328 C113.48668682 119.23294169 112.45849096 116.56952938 111.3125 113.875 C107.77468067 107.38404297 101.49214719 104.88407281 95.04980469 101.94287109 C91.74115617 100.42095583 88.50169774 98.76409034 85.25 97.125 C83.92318758 96.46612469 82.59636441 95.80727103 81.26953125 95.1484375 C76.46022106 92.74321567 71.69640539 90.25318054 66.9375 87.75 C66.15213867 87.33766113 65.36677734 86.92532227 64.55761719 86.50048828 C62.36615768 85.3437543 60.1815628 84.17527675 58 83 C57.34628418 82.65227539 56.69256836 82.30455078 56.01904297 81.94628906 C40.29369411 73.34004516 30.41562478 51.71169157 21 37 C16.53002292 30.02199758 12.057531 23.04629486 7.5 16.125 C6.52546875 14.64386719 6.52546875 14.64386719 5.53125 13.1328125 C5.0259375 12.42898438 4.520625 11.72515625 4 11 C3.67 11 3.34 11 3 11 Z M173.5 58.49609375 C168.00900724 59.21812364 162.52858972 59.10747601 157 59.0625 C155.93910156 59.05798828 154.87820313 59.05347656 153.78515625 59.04882812 C151.19004402 59.03713843 148.59505291 59.02075276 146 59 C147.36323743 61.0399719 147.36323743 61.0399719 149 63 C149.66 63 150.32 63 151 63 C151 63.99 151 64.98 151 66 C146.60748167 68.02055843 142.84659077 69.40895235 138 70 C139.78733227 72.15065784 139.78733227 72.15065784 142.0625 72.4375 C142.701875 72.623125 143.34125 72.80875 144 73 C144.33 73.99 144.66 74.98 145 76 C140.05 77.485 140.05 77.485 135 79 C138.60906863 81.19669118 138.60906863 81.19669118 141.375 80.9375 C143.93053071 80.02481046 145.1469884 79.17786811 147.1640625 77.44140625 C148.09992188 76.63574219 149.03578125 75.83007812 150 75 C149.33617488 77.83402265 148.66914762 80.66723176 148 83.5 C147.78287354 84.42272705 147.56574707 85.3454541 147.34204102 86.29614258 C145.968442 92.08350415 144.53077873 97.85054983 143.02734375 103.60546875 C139.6838374 116.45955536 136.52549031 129.23175475 134.5 142.375 C134.34007568 143.40713623 134.18015137 144.43927246 134.01538086 145.50268555 C132.58796376 155.51774805 132.44047655 163.96052585 135.625 173.625 C135.86089844 174.4190625 136.09679687 175.213125 136.33984375 176.03125 C138.23121694 181.94785331 141.04084737 186.2558838 145 191 C145.80050781 191.98589111 145.80050781 191.98589111 146.6171875 192.99169922 C148.2940528 195.04745244 149.98870119 197.08734631 151.6875 199.125 C156.07972903 204.42035289 160.40840159 209.75130772 164.625 215.1875 C171.00924726 223.39954812 177.58116959 231.69590769 185 239 C184.27219909 229.77829609 183.37648648 220.57729084 182.4375 211.375 C182.16422262 208.69542505 181.89227875 206.01572623 181.62109375 203.3359375 C181.5017749 202.16595215 181.38245605 200.9959668 181.25952148 199.79052734 C181 197 181 197 181 195 C181.54527344 194.90203125 182.09054687 194.8040625 182.65234375 194.703125 C183.78349609 194.47882813 183.78349609 194.47882813 184.9375 194.25 C185.66839844 194.11078125 186.39929688 193.9715625 187.15234375 193.828125 C191.28218854 192.62712761 195.10442893 190.80784239 199 189 C198.6927676 184.43712926 198.37829883 179.87478522 198.0625 175.3125 C197.97548828 174.01892578 197.88847656 172.72535156 197.79882812 171.39257812 C197.71181641 170.14541016 197.62480469 168.89824219 197.53515625 167.61328125 C197.456604 166.46641846 197.37805176 165.31955566 197.29711914 164.13793945 C197.03138878 158.6536044 197.03138878 158.6536044 194.22167969 154.2265625 C193.46274414 153.69804688 192.70380859 153.16953125 191.921875 152.625 C191.09042969 152.03203125 190.25898437 151.4390625 189.40234375 150.828125 C188.52707031 150.22484375 187.65179687 149.6215625 186.75 149 C171.77552667 138.49317314 171.77552667 138.49317314 169.4375 127.8125 C168.18896356 122.51746596 166.99466046 117.55161367 164.625 112.625 C160.51460431 103.03962381 164.25396958 90.22153193 167.8125 80.86328125 C170.56392203 76.54608287 175.30289551 74.60057235 180 73 C185.65090587 72.3091369 191.33452809 72.64134175 197 73 C194.99219954 68.44866094 191.97915128 66.2406958 188.125 63.25 C187.49980469 62.74339844 186.87460937 62.23679687 186.23046875 61.71484375 C185.62074219 61.23660156 185.01101563 60.75835937 184.3828125 60.265625 C183.82996582 59.83024414 183.27711914 59.39486328 182.70751953 58.94628906 C179.71184239 57.28611683 176.76972148 58.03263992 173.5 58.49609375 Z M141 90 C142 92 142 92 142 92 Z M140 92 C138.16642448 95.32214518 136.36215541 98.6593757 134.5625 102 C134.04623047 102.93457031 133.52996094 103.86914062 132.99804688 104.83203125 C128.32612685 113.56516279 127.82818645 120.7862694 127.875 130.5625 C127.87113281 131.37396484 127.86726562 132.18542969 127.86328125 133.02148438 C127.87097189 137.78583811 128.20539106 142.30171698 129 147 C130.77455485 143.8480814 131.50448931 140.99763137 132.11328125 137.44140625 C132.30712402 136.34248047 132.5009668 135.24355469 132.70068359 134.11132812 C132.90258301 132.94021484 133.10448242 131.76910156 133.3125 130.5625 C135.0541174 120.7290399 137.04107714 111.02559532 139.5637207 101.36157227 C139.76698975 100.56162842 139.97025879 99.76168457 140.1796875 98.9375 C140.36257324 98.24527344 140.54545898 97.55304688 140.73388672 96.83984375 C141.17342372 94.77231375 141.17342372 94.77231375 140 92 Z M176 134 C177.43907917 137.46174805 179.16580989 139.19653147 182.1328125 141.453125 C182.93847656 142.071875 183.74414062 142.690625 184.57421875 143.328125 C185.41597656 143.96234375 186.25773438 144.5965625 187.125 145.25 C187.97449219 145.8996875 188.82398438 146.549375 189.69921875 147.21875 C191.79430856 148.81949278 193.8945977 150.41286033 196 152 C199.32635882 150.47427344 200.95563002 149.06655496 203 146 C201.94941406 145.55269531 200.89882813 145.10539063 199.81640625 144.64453125 C192.89222327 141.67054601 186.0762412 138.73496334 179.6015625 134.84765625 C178.00739481 133.84407044 178.00739481 133.84407044 176 134 Z M201 155 C201 158.3 201 161.6 201 165 C201.33 165 201.66 165 202 165 C202 161.7 202 158.4 202 155 C201.67 155 201.34 155 201 155 Z M135 186 C134.9165791 191.21529595 135.37429431 194.90710823 139.0625 198.7734375 C140.35711245 199.99322647 141.67062548 201.19319211 143 202.375 C144.38645104 203.68104404 145.7692739 204.99095036 147.1484375 206.3046875 C147.81713867 206.93600586 148.48583984 207.56732422 149.17480469 208.21777344 C152.31518483 211.28422274 154.97967113 214.6829893 157.6953125 218.12109375 C166.80418507 229.49946508 176.52357304 240.8615223 187 251 C185.74232877 246.43682638 184.21033566 243.71232399 180.9375 240.3125 C177.70408095 236.85733132 174.60168867 233.36679447 171.625 229.6875 C168.29981143 225.58025488 164.92308455 221.52541463 161.5 217.5 C155.55673994 210.49742312 149.6793294 203.44740075 144.03125 196.203125 C143.52787109 195.55786865 143.02449219 194.9126123 142.50585938 194.24780273 C141.51446892 192.97368598 140.52610208 191.69720985 139.54101562 190.41821289 C138.3831953 188.92770718 137.19457137 187.46121677 136 186 C135.67 186 135.34 186 135 186 Z M188.875 197.5 C187.78832031 197.91765625 187.78832031 197.91765625 186.6796875 198.34375 C186.12539063 198.5603125 185.57109375 198.776875 185 199 C185.33 201.64 185.66 204.28 186 207 C189.63559661 203.56638098 192.36113346 200.2026393 195 196 C192.63456284 196 191.07695736 196.64762941 188.875 197.5 Z M198 199 C196.4416888 200.979556 194.92930998 202.97132118 193.4375 205 C193.01275391 205.57234375 192.58800781 206.1446875 192.15039062 206.734375 C191.09740223 208.15413463 190.04833735 209.57680263 189 211 C190.47486142 214.6428271 192.44522515 216.40829113 195.5625 218.75 C196.36816406 219.36359375 197.17382812 219.9771875 198.00390625 220.609375 C199.73129523 222.09527148 199.73129523 222.09527148 201 222 C200.30998457 210.47126895 200.30998457 210.47126895 199 199 C198.67 199 198.34 199 198 199 Z M134 203 C133.66871094 203.74378906 133.33742188 204.48757813 132.99609375 205.25390625 C128.19016601 215.45596337 122.12791791 224.66008529 115.91015625 234.05078125 C111.70698523 240.40767734 107.6935843 246.87155145 103.70678711 253.36547852 C100.65998242 258.32525165 97.57457803 263.25538912 94.43310547 268.15576172 C92.44427389 271.27309126 90.49207141 274.41264033 88.54101562 277.55371094 C87.47576875 279.24473972 86.39248626 280.92449255 85.29492188 282.59472656 C78.29881809 293.25303664 73.11466435 301.60442028 75.1640625 314.62890625 C75.86193804 317.44323613 76.66320305 319.47620173 78 322 C79.17278714 317.7308231 80.33718073 313.45940169 81.5 309.1875 C81.83386719 307.97255859 82.16773438 306.75761719 82.51171875 305.50585938 C82.82753906 304.34248047 83.14335938 303.17910156 83.46875 301.98046875 C83.76201172 300.90692139 84.05527344 299.83337402 84.35742188 298.72729492 C85.11466536 295.98032097 85.11466536 295.98032097 85 293 C85.68578125 292.74347656 86.3715625 292.48695313 87.078125 292.22265625 C100.01452004 286.80943212 106.19600041 280.21789165 111.84326172 267.56005859 C113.11404065 264.74760864 114.45799951 261.97818099 115.81640625 259.20703125 C120.20432732 250.22689614 124.53010946 241.25699637 128.09765625 231.9140625 C129 230 129 230 131 229 C126.28114999 243.48530163 121.49466742 257.8934999 115.83227539 272.04296875 C115.47512451 272.95949219 115.11797363 273.87601563 114.75 274.8203125 C114.43546875 275.60680176 114.1209375 276.39329102 113.796875 277.20361328 C111.7608189 284.34852337 111.93879192 290.80612169 113.21484375 298.05859375 C113.34943497 298.88778824 113.48402618 299.71698273 113.62269592 300.57130432 C114.04969982 303.19537759 114.49215674 305.81648198 114.9375 308.4375 C118.05451802 326.96653566 119.42893052 341.44257171 112.0234375 359.25 C110.82560595 361.97955626 110.82560595 361.97955626 111 365 C116.41954583 362.53533217 121.23293701 358.91771998 126.14453125 355.5859375 C128.44849823 354.02348366 130.75256671 352.54452376 133.13671875 351.1015625 C134.01972656 350.55242187 134.90273438 350.00328125 135.8125 349.4375 C136.58207031 348.98246094 137.35164063 348.52742187 138.14453125 348.05859375 C140.17526147 345.80555202 140.43088756 344.79451564 141.02719116 341.89297485 C141.19375088 341.08570072 141.36031059 340.27842659 141.53191757 339.44668961 C142.21863896 335.85716353 142.84243525 332.26235384 143.42041016 328.65380859 C143.61104286 327.48364449 143.61104286 327.48364449 143.80552673 326.2898407 C144.21953985 323.74315624 144.62956287 321.19585133 145.0390625 318.6484375 C145.3275911 316.86201773 145.61619714 315.07561047 145.90487671 313.28921509 C146.50686888 309.5593281 147.10664229 305.82909195 147.70507812 302.09863281 C148.47062129 297.32878842 149.24368653 292.56019655 150.01865578 287.79187584 C150.61606629 284.10866927 151.20848212 280.42467203 151.79951096 276.74043655 C152.08241084 274.98196623 152.36707904 273.22377942 152.65358353 271.46589279 C153.05374283 269.00720268 153.44689704 266.54748695 153.83837891 264.08740234 C153.95679642 263.36929886 154.07521393 262.65119537 154.19721985 261.91133118 C155.23626366 255.2945937 155.57727475 249.64492342 153.171875 243.33984375 C152.78620361 242.30520996 152.40053223 241.27057617 152.00317383 240.20458984 C151.58962646 239.1264502 151.1760791 238.04831055 150.75 236.9375 C148.13538912 229.96351954 145.62867695 223.10073405 143.8125 215.875 C142.29984923 210.21475841 140.33250159 206.95576232 136 203 C135.34 203 134.68 203 134 203 Z M149 217 C150.95679314 224.6140748 153.29871929 231.99434961 156 239.375 C156.38591309 240.4379126 156.77182617 241.5008252 157.16943359 242.59594727 C161.15811961 253.52957428 165.27057963 264.41601604 169.44140625 275.28125 C170.97759697 279.28645898 172.4762489 283.29809084 173.90234375 287.34375 C177.25537986 296.73012159 181.408778 304.23001617 187.53320312 312.08105469 C189.20126706 314.26330877 190.79827071 316.48848974 192.390625 318.7265625 C192.9686084 319.53867187 193.5465918 320.35078125 194.14208984 321.1875 C195.27306972 322.77832883 196.40362325 324.36946088 197.53369141 325.9609375 C200.14143914 329.58910826 202.68307531 332.97150354 206 336 C204.50987822 328.61924056 202.35177396 321.58565508 200 314.4375 C199.19147046 311.95351758 198.38394074 309.46923658 197.578125 306.984375 C197.36907532 306.3407048 197.16002563 305.69703461 196.94464111 305.03385925 C194.27088987 296.781827 191.70359136 288.49626421 189.13769531 280.21017456 C188.16152432 277.05797232 187.17873594 273.90811944 186.18554688 270.76123047 C185.36545194 268.15942187 184.56072478 265.5556778 183.76757812 262.94580078 C181.68945304 256.24167823 179.86297961 250.65950276 175 245.5 C174.03747368 244.44557418 173.07524754 243.39087427 172.11328125 242.3359375 C171.61006348 241.8006543 171.1068457 241.26537109 170.58837891 240.71386719 C167.69885329 237.5960575 164.95752436 234.3487077 162.1875 231.125 C160.63766089 229.33993439 159.08564329 227.55679233 157.53271484 225.77441406 C156.45182309 224.52307267 155.38005274 223.26382386 154.31494141 221.99902344 C153.77401855 221.35739258 153.2330957 220.71576172 152.67578125 220.0546875 C152.18634033 219.46929199 151.69689941 218.88389648 151.19262695 218.28076172 C150.79906006 217.85811035 150.40549316 217.43545898 150 217 C149.67 217 149.34 217 149 217 Z M187 218 C187.52544296 222.71483714 188.0587478 227.42869636 188.59912109 232.1418457 C188.78158461 233.74284193 188.96195765 235.34407793 189.14013672 236.94555664 C189.39772187 239.25734738 189.6629987 241.56815013 189.9296875 243.87890625 C190.00686005 244.58648575 190.08403259 245.29406525 190.1635437 246.02308655 C190.69177567 250.5180498 191.38455903 254.76252825 193 259 C194.82231252 260.52237688 194.82231252 260.52237688 197.140625 261.14453125 C197.96433594 261.42876953 198.78804687 261.71300781 199.63671875 262.00585938 C200.93029297 262.40514648 200.93029297 262.40514648 202.25 262.8125 C203.09691406 263.09802734 203.94382812 263.38355469 204.81640625 263.67773438 C207.20343574 264.47774193 209.59933939 265.24208909 212 266 C214.00064861 266.66471767 216.00098207 267.33039432 218 268 C215.6867256 259.8482937 212.95019203 251.87934931 210 243.9375 C209.58105469 242.72255859 209.16210938 241.50761719 208.73046875 240.25585938 C205.32377039 231.19914687 200.92752669 226.43146348 193 221 C192.27039063 220.42628662 191.54078125 219.85257324 190.7890625 219.26147461 C189.09242383 217.80791387 189.09242383 217.80791387 187 218 Z M208 227 C209 230 209 230 209 230 Z M209 230 C209.67519326 234.21797203 211.06013004 237.87007881 212.6875 241.8125 C215.22438681 248.01111235 217.62125104 254.2485391 219.90698242 260.54418945 C220.57994559 262.37208066 221.28930914 264.18644432 222 266 C222.38833008 267.00546875 222.77666016 268.0109375 223.17675781 269.046875 C225.52965556 272.85788882 227.35626647 273.4109314 231.56640625 274.80859375 C232.20110336 275.02443619 232.83580048 275.24027863 233.48973083 275.46266174 C234.82520921 275.91224265 236.1643058 276.35120093 237.5065918 276.7800293 C239.56688348 277.43890182 241.61437165 278.12936712 243.66210938 278.82617188 C249.86702573 281.52304069 249.86702573 281.52304069 256 281 C255.55200546 280.5586673 255.10401093 280.11733459 254.6424408 279.66262817 C249.94447566 275.03148307 245.2574622 270.38945525 240.57641602 265.74121094 C238.83240839 264.01220866 237.08570745 262.28591838 235.33618164 260.5625 C232.80928029 258.07234571 230.29250648 255.57231632 227.77734375 253.0703125 C227.00414291 252.31259552 226.23094208 251.55487854 225.43431091 250.77420044 C220.90355533 246.24483176 217.08187376 241.58430997 213.51564026 236.25924683 C212.07720879 234.11508912 210.56674324 232.05159808 209 230 Z M186 259 C188.48992271 266.51796018 191.04670195 274.01191643 193.625 281.5 C193.84143158 282.12884094 194.05786316 282.75768188 194.28085327 283.40557861 C197.74748502 293.46913398 201.28120261 303.50679299 204.9621582 313.49438477 C206.54461769 317.81130055 208.07949157 322.08662291 209.25 326.53515625 C212.20979737 337.62936271 218.34805098 342.78741169 227.76953125 348.75390625 C235.93711536 354.09930903 240.73111113 360.99826661 246.15234375 368.953125 C248.20072519 371.94811209 250.28293926 374.56446603 253 377 C253.20117563 369.14056612 251.85295601 361.67250195 250.50366211 353.95068359 C250.21179109 352.24662203 249.93356407 350.54016186 249.66967773 348.83154297 C247.78769819 336.66870584 244.84322363 328.57445176 237 319 C235.65609607 317.15348056 234.32108808 315.30041118 233 313.4375 C230.88111068 310.53572788 228.74165555 307.65167631 226.5703125 304.7890625 C226.16296875 304.25095947 225.755625 303.71285645 225.3359375 303.15844727 C224.18834108 301.64597996 223.03572095 300.13732828 221.8828125 298.62890625 C220.32604075 296.45523947 219.09128722 294.42954996 218 292 C232.85509661 298.60632061 245.96710683 308.18085953 258 319 C259.29391483 316.99440582 259.29391483 316.99440582 258.26245117 314.69677734 C256.93227682 311.5762602 255.57148321 308.47205094 254.1875 305.375 C253.51944336 303.77205078 253.51944336 303.77205078 252.83789062 302.13671875 C249.28883709 294.19894564 245.09959651 289.89329952 238 285 C236.77260049 284.03726675 235.54942652 283.06910308 234.33203125 282.09375 C225.00090173 275.07731928 215.44595619 271.24086885 204.34765625 267.75390625 C197.90740016 265.72001932 191.16914396 263.49490779 186 259 Z M160 263 C158.51454221 270.73358246 157.04442682 278.46985796 155.59370995 286.21002483 C154.91957375 289.80417175 154.2402325 293.39716867 153.54882812 296.98803711 C152.88154654 300.4546648 152.22815849 303.92365158 151.58424759 307.39469337 C151.21591894 309.36013723 150.83331927 311.32288928 150.45053101 313.28556824 C150.11996201 315.08686943 150.11996201 315.08686943 149.78271484 316.92456055 C149.5828598 317.97935104 149.38300476 319.03414154 149.17709351 320.12089539 C148.84139251 325.57856752 151.84531222 329.56890736 154.5625 334.125 C159.20984798 342.0825228 163.08446588 350.36468396 166.94482422 358.72509766 C168.19814035 361.42717996 169.48010854 364.11490933 170.76464844 366.80224609 C171.63055264 368.6367639 172.46741261 370.48253768 173.30078125 372.33203125 C174.41130154 374.78895179 175.61795073 377.1502481 176.91796875 379.51171875 C184.42810464 394.08233907 183.59232416 410.96886806 184 427 C186.19805871 424.2476175 187.74862841 421.62308551 189.12890625 418.38671875 C189.51973389 417.47994385 189.91056152 416.57316895 190.31323242 415.63891602 C190.72549072 414.66494873 191.13774902 413.69098145 191.5625 412.6875 C194.23545018 406.37576898 196.91976321 400.09702025 199.9140625 393.9296875 C205.62520579 381.99125647 208.255481 374.25949437 206 361 C206.00386719 359.70835937 206.00773437 358.41671875 206.01171875 357.0859375 C205.97830584 343.24631042 197.85223104 333.57414878 189.99414062 322.76123047 C187.31401243 319.0501323 184.77287836 315.256364 182.25 311.4375 C181.51265625 310.34308594 180.7753125 309.24867188 180.015625 308.12109375 C175.86382281 301.69223726 173.02212219 295.74233947 170.625 288.5 C167.69408082 279.87278142 164.48263228 271.41955057 161 263 C160.67 263 160.34 263 160 263 Z M109 296 C108.67 297.175625 108.34 298.35125 108 299.5625 C107.814375 300.22378906 107.62875 300.88507813 107.4375 301.56640625 C106.04861943 309.29205444 108.03067366 315.96381785 110 323.4375 C110.28617188 324.55060547 110.57234375 325.66371094 110.8671875 326.81054688 C111.57066661 329.54239074 112.28178686 332.27199981 113 335 C113.33 335 113.66 335 114 335 C114.85293849 321.75576067 112.30108211 308.98948612 110 296 C109.67 296 109.34 296 109 296 Z M148 335 C147.12867639 338.39166635 146.28101682 341.78882082 145.4375 345.1875 C145.19064453 346.14720703 144.94378906 347.10691406 144.68945312 348.09570312 C144.46064453 349.02705078 144.23183594 349.95839844 143.99609375 350.91796875 C143.78138428 351.77156982 143.5666748 352.6251709 143.34545898 353.50463867 C142.68223404 358.29532574 144.3783274 362.26869197 146.109375 366.68359375 C146.53226807 367.76922607 146.95516113 368.8548584 147.39086914 369.97338867 C147.83938232 371.11654541 148.28789551 372.25970215 148.75 373.4375 C149.66077411 375.79663656 150.57093646 378.1560094 151.48046875 380.515625 C152.87512521 384.1199902 154.28339589 387.71644416 155.73828125 391.296875 C158.99972709 399.64771567 159.86279169 407.09393358 160 416 C163.06796129 412.93203871 164.41888019 409.11056419 166.1875 405.1875 C166.56841797 404.37990234 166.94933594 403.57230469 167.34179688 402.74023438 C167.69693359 401.95326172 168.05207031 401.16628906 168.41796875 400.35546875 C168.74563232 399.64028076 169.0732959 398.92509277 169.41088867 398.18823242 C170.67387258 393.49692502 168.38413071 389.069448 166.7421875 384.6875 C166.28448975 383.45636475 165.82679199 382.22522949 165.35522461 380.95678711 C165.11335419 380.31047333 164.87148376 379.66415955 164.62228394 378.9982605 C160.58094096 368.19158362 156.67720872 357.35795689 153.10693359 346.38476562 C151.85354215 342.53284081 150.5717991 338.73772321 149 335 C148.67 335 148.34 335 148 335 Z M214 346 C213.01 346.66 212.02 347.32 211 348 C211.55186925 356.16639409 212.59740042 364.12762508 214 372.1875 C215.67116061 382.13626765 216.72268037 391.91943131 217 402 C222.95483757 394.37850236 225.9548052 386.56078194 227 377 C227.10425293 376.2373584 227.20850586 375.4747168 227.31591797 374.68896484 C229.06831238 364.01781053 229.06831238 364.01781053 226.23046875 354.0390625 C223.90756673 351.96655622 221.73721815 350.47157653 219 349 C218.07445312 348.44441406 217.14890625 347.88882812 216.1953125 347.31640625 C215.47085937 346.88199219 214.74640625 346.44757813 214 346 Z M253 377 C254 379 254 379 254 379 Z " fill="#000000" transform="translate(440,411)"/>
<path d="M0 0 C2.31 0.66 4.62 1.32 7 2 C7 2.99 7 3.98 7 5 C5.75336669 5.50833591 4.50250613 6.00631145 3.25 6.5 C2.55390625 6.7784375 1.8578125 7.056875 1.140625 7.34375 C-1 8 -1 8 -5 8 C-3.62845496 5.04590299 -2.01136276 2.55991624 0 0 Z " fill="#000000" transform="translate(613,471)"/>
</svg>
